<svg width="800" height="800" xmlns="http://www.w3.org/2000/svg">

 <g>
  <title>Layer 1</title>
  <path stroke="#000" stroke-width="0" id="svg_3" d="m400.02013,254.69493c-87.2795,0 -157.96587,68.60511 -157.96587,153.31481c0,84.65127 70.68637,153.29533 157.96587,153.29533c87.19925,0 157.92574,-68.64406 157.92574,-153.29533c0.02006,-84.70969 -70.68637,-153.31481 -157.92574,-153.31481zm0,267.68263c-65.08844,-0.15579 -117.69691,-51.21529 -117.85743,-114.34835c0.14045,-63.15254 52.76899,-114.23151 117.85743,-114.3873c65.04831,0.15579 117.65678,51.23476 117.79723,114.3873c-0.14045,63.13306 -52.74892,114.19256 -117.79723,114.34835zm0,-277.94516c11.09553,0 20.06425,-8.72412 20.06425,-19.49297l0,-94.46591c-0.04013,-10.76884 -8.98879,-19.47349 -20.06425,-19.47349c-11.09553,0 -20.08432,8.7436 -20.06425,19.51244l0,94.44644c0,10.72989 8.96872,19.47349 20.06425,19.47349zm64.46645,12.42409c2.50803,1.0321 5.11638,1.47999 7.66454,1.49946c7.90532,0 15.34915,-4.53732 18.55943,-12.03462l37.23926,-87.29967c4.21349,-9.95095 -0.62199,-21.32347 -10.85476,-25.43238c-10.25283,-4.10891 -21.99042,0.60368 -26.24404,10.53516l-37.21919,87.31914c-4.23356,9.93148 0.62199,21.32347 10.85476,25.41291zm54.67509,35.46123c3.91253,3.77786 9.04898,5.70573 14.18543,5.70573s10.2729,-1.9084 14.18543,-5.70573l68.82039,-66.8525c7.84512,-7.59466 7.82506,-19.92138 0,-27.55499c-7.86519,-7.59466 -20.56586,-7.59466 -28.39092,0.03895l-68.80033,66.81355c-7.84512,7.61414 -7.84512,19.94086 0,27.55499zm36.57713,53.04579c3.17015,7.49729 10.65412,12.01514 18.51931,12.01514c2.54816,0 5.15651,-0.48684 7.68461,-1.51893l89.88786,-36.16228c10.25283,-4.10891 15.10838,-15.52037 10.85476,-25.45185s-15.97115,-14.64407 -26.22398,-10.51569l-89.90792,36.16228c-10.23277,4.12838 -15.06825,15.53985 -10.81463,25.47133zm130.19694,43.05589l-97.3317,0.01947c-11.07547,0 -20.06425,8.72412 -20.02413,19.49297c0,10.76884 8.96872,19.45402 20.02413,19.45402l97.35176,-0.03895c11.09553,0 20.04419,-8.7436 20.04419,-19.47349c0,-10.76884 -8.98879,-19.49297 -20.06425,-19.45402zm-14.00485,107.64947l-89.92799,-36.10386c-10.2729,-4.12838 -22.01049,0.5842 -26.22398,10.53516c-4.23356,9.95095 0.62199,21.34295 10.85476,25.47133l89.92799,36.10386c2.5281,0.99315 5.13645,1.46051 7.68461,1.46051c7.88525,0 15.34915,-4.51785 18.55943,-12.01514c4.21349,-9.95095 -0.66212,-21.36242 -10.87483,-25.45185zm-124.27799,27.51605c-7.84512,-7.61414 -20.52573,-7.61414 -28.37086,0.01947c-7.84512,7.59466 -7.82506,19.90191 0,27.51605l68.90065,66.77461c3.91253,3.79733 9.02891,5.70573 14.16536,5.70573s10.29296,-1.9084 14.20549,-5.70573c7.84512,-7.63361 7.80499,-19.96033 0,-27.55499l-68.90065,-66.75513zm-56.8019,46.01586c-4.23356,-9.95095 -15.97115,-14.64407 -26.22398,-10.53516c-10.23277,4.12838 -15.08832,15.52037 -10.8347,25.47133l37.31951,87.24125c3.19022,7.49729 10.65412,12.01514 18.55943,12.01514c2.56822,0 5.17658,-0.46736 7.68461,-1.47999c10.25283,-4.10891 15.08832,-15.52037 10.8347,-25.4908l-37.33958,-87.22177zm-90.63023,2.00577c-11.09553,0 -20.06425,8.72412 -20.06425,19.47349l0.08026,94.46591c0,10.76884 9.00885,19.45402 20.06425,19.45402c11.09553,0 20.06425,-8.72412 20.02413,-19.47349l-0.06019,-94.48539c0,-10.71042 -9.00885,-19.45402 -20.04419,-19.43455zm-64.52664,-12.38514c-10.23277,-4.08943 -21.95029,0.60368 -26.20392,10.57411l-37.159,87.29967c-4.21349,9.95095 0.66212,21.34295 10.89489,25.45185c2.50803,1.01262 5.09632,1.47999 7.66454,1.47999c7.86519,0 15.34915,-4.5568 18.53937,-12.05409l37.17906,-87.33861c4.23356,-9.93148 -0.66212,-21.304 -10.91495,-25.41291zm-54.69516,-35.38334c-7.86519,-7.61414 -20.56586,-7.57519 -28.39092,0.03895l-68.74013,66.8525c-7.84512,7.63361 -7.80499,19.92138 0.04013,27.55499c3.91253,3.77786 9.02891,5.68626 14.16536,5.68626c5.15651,0 10.29296,-1.9084 14.20549,-5.70573l68.7602,-66.87197c7.80499,-7.61414 7.80499,-19.94086 -0.04013,-27.55499zm-36.5972,-52.98737c-4.27369,-9.91201 -15.99121,-14.62459 -26.22398,-10.51569l-89.86779,36.24017c-10.25283,4.12838 -15.08832,15.53985 -10.8347,25.47133c3.21028,7.49729 10.65412,11.99567 18.53937,11.99567c2.54816,0 5.17658,-0.46736 7.68461,-1.47999l89.86779,-36.24017c10.21271,-4.16733 15.06825,-15.55932 10.8347,-25.47133zm-12.96151,-62.54886c0,-10.76884 -8.96872,-19.45402 -20.06425,-19.45402l-97.3317,0.11684c-11.09553,0 -20.08432,8.72412 -20.04419,19.49297c0.02006,10.72989 9.00885,19.47349 20.06425,19.43455l97.35176,-0.11684c11.07547,0 20.06425,-8.76307 20.02413,-19.47349zm-103.45129,-88.07861l89.98818,36.02596c2.50803,1.0321 5.09632,1.47999 7.64448,1.47999c7.88525,0 15.36922,-4.51785 18.55943,-12.03462c4.25362,-9.95095 -0.64206,-21.36242 -10.91495,-25.43238l-89.94805,-36.02596c-10.25283,-4.08943 -21.97036,0.62315 -26.20392,10.55463c-4.25362,9.95095 0.66212,21.304 10.87483,25.43238zm124.25792,-27.61341c3.91253,3.75838 9.00885,5.66679 14.1453,5.66679s10.29296,-1.9084 14.22556,-5.74468c7.84512,-7.57519 7.80499,-19.92138 -0.08026,-27.53552l-68.90065,-66.67724c-7.82506,-7.59466 -20.56586,-7.55572 -28.37086,0.05842c-7.84512,7.59466 -7.80499,19.94086 0.04013,27.53552l68.94078,66.69671zm56.72165,-46.09376c3.21028,7.47782 10.67418,11.9762 18.51931,11.9762c2.56822,0 5.17658,-0.48684 7.70467,-1.49946c10.23277,-4.12838 15.10838,-15.53985 10.8347,-25.45185l-37.39977,-87.22177c-4.25362,-9.93148 -16.01127,-14.62459 -26.24404,-10.49621c-10.23277,4.14785 -15.06825,15.55932 -10.81463,25.47133l37.39977,87.22177z" fill="#84D3DB"/>
 </g>
</svg>